<svg xmlns="http://www.w3.org/2000/svg" viewBox="0 0 50 50"><defs><style>.a{fill:#333;}</style></defs><title>creditcard</title><path class="a" d="M38.31,13.36H11.69a4,4,0,0,0-3.94,3.95V32.69a4,4,0,0,0,3.94,4H38.31a4,4,0,0,0,3.94-4V17.3A4,4,0,0,0,38.31,13.36Zm1.61,19.35a1.66,1.66,0,0,1-1.66,1.66H11.67A1.66,1.66,0,0,1,10,32.71V24H39.92Zm0-10.94H10V19.83H39.92Zm0-4.2H10v-.28a1.66,1.66,0,0,1,1.66-1.66H38.26a1.66,1.66,0,0,1,1.66,1.66Z"/><path class="a" d="M22.53,28.56a1.15,1.15,0,0,1-1.15,1.12H13.13A1.13,1.13,0,0,1,12,28.53a1.15,1.15,0,0,1,1.15-1.12H21.4a1.13,1.13,0,0,1,1.13,1.15Z"/><path class="a" d="M22.53,31.32a1.14,1.14,0,0,1-1.15,1.11H13.13a1.16,1.16,0,0,1-.81-.33,1.13,1.13,0,0,1-.32-.82,1.15,1.15,0,0,1,1.15-1.11H21.4a1.13,1.13,0,0,1,1.13,1.15Z"/><path class="a" d="M35.44,26H34.06a2.54,2.54,0,0,0-2.54,2.54v1.38a2.54,2.54,0,0,0,2.54,2.54h1.38A2.54,2.54,0,0,0,38,29.89V28.51A2.54,2.54,0,0,0,35.44,26Zm-1.66,2.52a.26.26,0,0,1,.26-.26h1.42a.26.26,0,0,1,.26.26v1.42a.26.26,0,0,1-.26.26H34a.26.26,0,0,1-.26-.26Z"/></svg>