<svg xmlns="http://www.w3.org/2000/svg" viewBox="0 0 50 50"><defs><style>.a{fill:#333;}</style></defs><title>customerservice</title><path class="a" d="M36,21.92V20.81A10.86,10.86,0,0,0,32.71,13,10.75,10.75,0,0,0,25,9.88,10.89,10.89,0,0,0,14.33,20.71v1.16a3.54,3.54,0,0,0-3.22,3.62V30a3.41,3.41,0,0,0,.94,2.46,3.48,3.48,0,0,0,2.47,1.07h2.69a1.27,1.27,0,0,0,.89-.42,1.33,1.33,0,0,0,.34-.94V23.34a1.36,1.36,0,0,0-1.26-1.47H17V20.8a8.3,8.3,0,0,1,2.55-6,8,8,0,0,1,6-2.27,8.17,8.17,0,0,1,7.86,8.18v1.16H33.2A1.35,1.35,0,0,0,32,23.34v8.74a1.32,1.32,0,0,0,.81,1.34,5.12,5.12,0,0,1-2.89,1.24,4.19,4.19,0,0,0-1.65-2.15,4.12,4.12,0,0,0-3.11-.6A4.15,4.15,0,0,0,26,40.12a4.29,4.29,0,0,0,3-1.29,4,4,0,0,0,.91-1.55,7.74,7.74,0,0,0,5.7-3.1l.53-.77a3,3,0,0,0,2.75-3v-4.5A4,4,0,0,0,36,21.92Zm-20.2,9H14.56a.79.79,0,0,1-.55-.25.77.77,0,0,1-.22-.62V25.53c0-.48.3-1,.76-1h1.26ZM27.06,37h0a1.48,1.48,0,0,1-1.09.49A1.57,1.57,0,0,1,24.4,36a1.52,1.52,0,1,1,3,0A1.29,1.29,0,0,1,27.06,37Zm7.53-12.41h.92c.34,0,.77.73.77,1.33v4.49c0,.33-.26.51-.77.51h-.92Z"/></svg>