<svg xmlns="http://www.w3.org/2000/svg" viewBox="0 0 50 50"><defs><style>.a{fill:#333;}</style></defs><title>fastshipping</title><path class="a" d="M34.71,28.6a4.81,4.81,0,1,0,4.81,4.81A4.81,4.81,0,0,0,34.71,28.6Zm0,7.21a2.4,2.4,0,1,1,2.4-2.4A2.41,2.41,0,0,1,34.71,35.81Z"/><path class="a" d="M18.3,28.6a4.81,4.81,0,1,0,4.8,4.81A4.82,4.82,0,0,0,18.3,28.6Zm0,7.21a2.4,2.4,0,1,1,2.4-2.4A2.41,2.41,0,0,1,18.3,35.81Z"/><path class="a" d="M37.89,14.83a1.2,1.2,0,0,0-1.07-.66H30.55v2.38h5.54L39.33,23l2.13-1.07Z"/><rect class="a" x="21.99" y="32.26" width="9.08" height="2.38"/><path class="a" d="M14.68,32.26h-4.1A1.2,1.2,0,0,0,9.36,33.4a1.19,1.19,0,0,0,1.19,1.24h4.09a1.22,1.22,0,0,0,1.23-1.14A1.19,1.19,0,0,0,14.68,32.26Z"/><path class="a" d="M43.77,24.9l-2.36-3a1.19,1.19,0,0,0-.95-.47H31.74V13a1.19,1.19,0,0,0-1.2-1.19H10.73a1.2,1.2,0,0,0-1.22,1.13,1.19,1.19,0,0,0,1.18,1.25H29.36v8.4a1.19,1.19,0,0,0,1.2,1.2h9.33L41.64,26v6.23H38.38a1.22,1.22,0,0,0-1.23,1.14,1.19,1.19,0,0,0,1.19,1.24h4.48a1.2,1.2,0,0,0,1.2-1.2V25.63A1.22,1.22,0,0,0,43.77,24.9Z"/><path class="a" d="M14.59,26.16H9.15a1.21,1.21,0,0,0-1.23,1.13,1.19,1.19,0,0,0,1.19,1.25h5.44a1.22,1.22,0,0,0,1.23-1.14A1.19,1.19,0,0,0,14.59,26.16Z"/><path class="a" d="M17.33,21.47H7.21A1.21,1.21,0,0,0,6,22.6a1.19,1.19,0,0,0,1.19,1.25H17.3a1.22,1.22,0,0,0,1.22-1.14A1.19,1.19,0,0,0,17.33,21.47Z"/><path class="a" d="M19.29,16.7H9.17a1.22,1.22,0,0,0-1.23,1.14,1.19,1.19,0,0,0,1.19,1.24H19.26A1.2,1.2,0,0,0,20.48,18,1.19,1.19,0,0,0,19.29,16.7Z"/></svg>