<svg xmlns="http://www.w3.org/2000/svg" width="96.845" height="112.295" viewBox="0 0 96.845 112.295"><g transform="translate(0.7 0.7)"><path d="M518.462,312.371l-11.93-6.888L494.6,298.6v27.551l11.93-6.888Z" transform="translate(-494.6 -229.028)" fill="none" stroke="#383330" stroke-linecap="round" stroke-linejoin="round" stroke-width="1.4"/><path d="M505.73,339.922l11.93-6.887,11.931-6.888V298.6L505.73,312.371v27.551Z" transform="translate(-481.869 -229.028)" fill="none" stroke="#383330" stroke-linecap="round" stroke-linejoin="round" stroke-width="1.4"/><path d="M518.463,319.722l11.931-6.887,11.93-6.888-11.932-6.89-11.929-6.887-11.93,6.885L494.6,305.946l11.93,6.888Z" transform="translate(-494.601 -236.379)" fill="none" stroke="#383330" stroke-linecap="round" stroke-linejoin="round" stroke-width="1.4"/><path d="M540.72,306.872l11.93-6.887,11.931-6.888-11.932-6.89L540.72,279.32l-11.93,6.885L516.859,293.1l11.93,6.888Z" transform="translate(-469.136 -251.08)" fill="none" stroke="#383330" stroke-linecap="round" stroke-linejoin="round" stroke-width="1.4"/><path d="M529.592,313.3l11.93-6.888,11.93-6.888-11.932-6.889-11.929-6.887-11.93,6.885-11.932,6.89,11.93,6.888Z" transform="translate(-481.869 -243.729)" fill="none" stroke="#383330" stroke-linecap="round" stroke-linejoin="round" stroke-width="1.4"/><path d="M494.6,318.8l11.93,6.888,11.931,6.888V305.02l-11.931,6.888Z" transform="translate(-494.6 -221.677)" fill="none" stroke="#383330" stroke-linecap="round" stroke-linejoin="round" stroke-width="1.4"/><path d="M516.859,333.5l11.93-6.887,11.931-6.889V292.171l-23.862,13.776V333.5Z" transform="translate(-469.136 -236.378)" fill="none" stroke="#383330" stroke-linecap="round" stroke-linejoin="round" stroke-width="1.4"/><path d="M527.988,327.073l11.93-6.887,11.93-6.888V285.746l-23.862,13.776v27.551Z" transform="translate(-456.404 -243.729)" fill="none" stroke="#383330" stroke-linecap="round" stroke-linejoin="round" stroke-width="1.4"/><path d="M519.059,321.6h0l-12.229,7.06-12.228,7.06V307.475l12.229-7.059,12.228-7.06h0l12.229-7.059,34.9-20.147v28.24l-34.9,20.147Z" transform="translate(-494.601 -266.149)" fill="none" stroke="#383330" stroke-linecap="round" stroke-linejoin="round" stroke-width="1.4"/></g></svg>