<svg width="134" height="42" viewBox="0 0 134 42" fill="none" xmlns="http://www.w3.org/2000/svg">
<path d="M23.0882 8L13.9982 29H9.1982L0.138203 8H5.3882L11.7782 23L18.2582 8H23.0882ZM42.111 29.36C39.111 29.36 36.771 28.53 35.091 26.87C33.431 25.21 32.601 22.84 32.601 19.76V8H37.461V19.58C37.461 23.34 39.021 25.22 42.141 25.22C43.661 25.22 44.821 24.77 45.621 23.87C46.421 22.95 46.821 21.52 46.821 19.58V8H51.621V19.76C51.621 22.84 50.781 25.21 49.101 26.87C47.441 28.53 45.111 29.36 42.111 29.36ZM77.3141 24.5H67.5641L65.7041 29H60.7241L70.0841 8H74.8841L84.2741 29H79.1741L77.3141 24.5ZM75.7841 20.81L72.4541 12.77L69.1241 20.81H75.7841ZM93.9529 8H103.493C105.773 8 107.783 8.44 109.523 9.32C111.283 10.18 112.643 11.4 113.603 12.98C114.583 14.56 115.073 16.4 115.073 18.5C115.073 20.6 114.583 22.44 113.603 24.02C112.643 25.6 111.283 26.83 109.523 27.71C107.783 28.57 105.773 29 103.493 29H93.9529V8ZM103.253 25.01C105.353 25.01 107.023 24.43 108.263 23.27C109.523 22.09 110.153 20.5 110.153 18.5C110.153 16.5 109.523 14.92 108.263 13.76C107.023 12.58 105.353 11.99 103.253 11.99H98.8129V25.01H103.253ZM126.238 8H131.098V29H126.238V8Z" fill="white"/>
<path d="M3.91486 38.0909V41H3.38787V38.0909H3.91486ZM8.17768 38.5327V38.0909H10.4987V38.5327H9.59956V41H9.07683V38.5327H8.17768ZM14.7882 41H14.2257L15.2498 38.0909H15.9004L16.926 41H16.3635L15.5865 38.6875H15.5637L14.7882 41ZM14.8066 39.8594H16.3407V40.2827H14.8066V39.8594ZM21.1291 41V38.0909H21.6561V40.5582H22.9374V41H21.1291ZM27.7417 38.0909V41H27.2147V38.0909H27.7417ZM32.506 41H31.9435L32.9676 38.0909H33.6182L34.6438 41H34.0813L33.3043 38.6875H33.2815L32.506 41ZM32.5244 39.8594H34.0585V40.2827H32.5244V39.8594ZM41.2376 38.0909V41H40.7688L39.3981 39.0185H39.3739V41H38.8469V38.0909H39.3185L40.6878 40.0739H40.7134V38.0909H41.2376ZM51.5278 40.0227H52.005L52.2877 40.3892L52.4894 40.6278L52.9738 41.25H52.4624L52.1329 40.8324L51.9923 40.6335L51.5278 40.0227ZM53.0434 39.5455C53.0434 39.8589 52.9847 40.1274 52.8673 40.3509C52.7508 40.5734 52.5917 40.7438 52.39 40.8622C52.1892 40.9806 51.9615 41.0398 51.7067 41.0398C51.452 41.0398 51.2238 40.9806 51.0221 40.8622C50.8213 40.7429 50.6622 40.572 50.5448 40.3494C50.4283 40.1259 50.3701 39.858 50.3701 39.5455C50.3701 39.232 50.4283 38.964 50.5448 38.7415C50.6622 38.518 50.8213 38.3471 51.0221 38.2287C51.2238 38.1103 51.452 38.0511 51.7067 38.0511C51.9615 38.0511 52.1892 38.1103 52.39 38.2287C52.5917 38.3471 52.7508 38.518 52.8673 38.7415C52.9847 38.964 53.0434 39.232 53.0434 39.5455ZM52.5136 39.5455C52.5136 39.3248 52.479 39.1387 52.4099 38.9872C52.3417 38.8348 52.247 38.7197 52.1258 38.642C52.0046 38.5634 51.8649 38.5241 51.7067 38.5241C51.5486 38.5241 51.4089 38.5634 51.2877 38.642C51.1665 38.7197 51.0713 38.8348 51.0022 38.9872C50.934 39.1387 50.8999 39.3248 50.8999 39.5455C50.8999 39.7661 50.934 39.9527 51.0022 40.1051C51.0713 40.2566 51.1665 40.3717 51.2877 40.4503C51.4089 40.5279 51.5486 40.5668 51.7067 40.5668C51.8649 40.5668 52.0046 40.5279 52.1258 40.4503C52.247 40.3717 52.3417 40.2566 52.4099 40.1051C52.479 39.9527 52.5136 39.7661 52.5136 39.5455ZM59.1993 38.0909H59.7263V39.9915C59.7263 40.1998 59.6771 40.383 59.5786 40.5412C59.4811 40.6993 59.3437 40.8229 59.1667 40.9119C58.9896 41 58.7827 41.044 58.5459 41.044C58.3082 41.044 58.1008 41 57.9238 40.9119C57.7467 40.8229 57.6094 40.6993 57.5118 40.5412C57.4143 40.383 57.3655 40.1998 57.3655 39.9915V38.0909H57.8925V39.9474C57.8925 40.0687 57.919 40.1766 57.9721 40.2713C58.026 40.366 58.1018 40.4403 58.1993 40.4943C58.2969 40.5473 58.4124 40.5739 58.5459 40.5739C58.6794 40.5739 58.795 40.5473 58.8925 40.4943C58.991 40.4403 59.0668 40.366 59.1198 40.2713C59.1728 40.1766 59.1993 40.0687 59.1993 39.9474V38.0909ZM64.4927 41H63.9302L64.9543 38.0909H65.6049L66.6305 41H66.068L65.291 38.6875H65.2683L64.4927 41ZM64.5112 39.8594H66.0453V40.2827H64.5112V39.8594ZM70.8336 41V38.0909H71.3606V40.5582H72.6419V41H70.8336ZM77.4463 38.0909V41H76.9193V38.0909H77.4463ZM81.7091 38.5327V38.0909H84.0301V38.5327H83.131V41H82.6082V38.5327H81.7091ZM88.0987 38.0909H88.6939L89.4055 39.3778H89.4339L90.1456 38.0909H90.7407L89.6825 39.9148V41H89.1569V39.9148L88.0987 38.0909ZM99.7461 41V38.0909H100.273V40.5582H101.554V41H99.7461ZM106.359 38.0909V41H105.832V38.0909H106.359ZM111.139 38.0909L111.896 40.3807H111.926L112.681 38.0909H113.261L112.235 41H111.585L110.561 38.0909H111.139ZM117.991 38.0909V41H117.464V38.0909H117.991ZM124.772 38.0909V41H124.303L122.933 39.0185H122.909V41H122.382V38.0909H122.853L124.223 40.0739H124.248V38.0909H124.772ZM131.115 39.0199C131.092 38.9432 131.059 38.8745 131.017 38.8139C130.977 38.7524 130.927 38.6998 130.87 38.6562C130.813 38.6127 130.747 38.58 130.674 38.5582C130.6 38.5355 130.519 38.5241 130.432 38.5241C130.276 38.5241 130.137 38.5634 130.014 38.642C129.892 38.7206 129.796 38.8362 129.726 38.9886C129.657 39.1402 129.622 39.3248 129.622 39.5426C129.622 39.7623 129.657 39.9484 129.726 40.1009C129.795 40.2533 129.891 40.3693 130.014 40.4489C130.138 40.5275 130.281 40.5668 130.443 40.5668C130.591 40.5668 130.719 40.5384 130.827 40.4815C130.936 40.4247 131.02 40.3442 131.078 40.2401C131.137 40.1349 131.166 40.0118 131.166 39.8707L131.286 39.8892H130.496V39.4773H131.676V39.8267C131.676 40.0758 131.623 40.2912 131.517 40.473C131.411 40.6548 131.265 40.795 131.08 40.8935C130.894 40.991 130.681 41.0398 130.441 41.0398C130.173 41.0398 129.937 40.9796 129.735 40.8594C129.533 40.7382 129.375 40.5663 129.262 40.3438C129.149 40.1203 129.093 39.8551 129.093 39.5483C129.093 39.3134 129.126 39.1037 129.192 38.919C129.259 38.7344 129.353 38.5777 129.473 38.4489C129.594 38.3191 129.735 38.2206 129.897 38.1534C130.059 38.0852 130.235 38.0511 130.425 38.0511C130.586 38.0511 130.736 38.0748 130.875 38.1222C131.014 38.1686 131.138 38.2348 131.246 38.321C131.355 38.4072 131.444 38.5095 131.514 38.6278C131.585 38.7462 131.63 38.8769 131.652 39.0199H131.115Z" fill="url(#paint0_radial_417_305)"/>
<defs>
<radialGradient id="paint0_radial_417_305" cx="0" cy="0" r="1" gradientUnits="userSpaceOnUse" gradientTransform="translate(67.5 39.5) rotate(90) scale(2.5 64.5)">
<stop stop-color="white"/>
<stop offset="1" stop-color="white" stop-opacity="0.31"/>
</radialGradient>
</defs>
</svg>
