<svg xmlns="http://www.w3.org/2000/svg" width="86.086" height="123.264" viewBox="0 0 86.086 123.264"><g transform="translate(0.956 0.7)"><path d="M511.322,46.143l10.553-6.093,10.553-6.093V58.33l-10.553,6.093-10.553,6.094V46.143Z" transform="translate(-469.107 -9.585)" fill="none" stroke="#383330" stroke-linecap="round" stroke-linejoin="round" stroke-width="1.4"/><path d="M511.322,58.994,521.875,52.9l10.554-6.093V71.18l-10.554-6.093Z" transform="translate(-469.107 1.938)" fill="none" stroke="#383330" stroke-linecap="round" stroke-linejoin="round" stroke-width="1.4"/><path d="M511.322,71.844l10.553-6.093,10.553-6.093V84.03l-10.553,6.093-10.553,6.093V71.844Z" transform="translate(-469.107 13.46)" fill="none" stroke="#383330" stroke-linecap="round" stroke-linejoin="round" stroke-width="1.4"/><path d="M500.194,78.269l10.554-6.093L521.3,66.082V90.455l-10.554,6.093-10.554,6.093V78.269Z" transform="translate(-479.086 19.222)" fill="none" stroke="#383330" stroke-linecap="round" stroke-linejoin="round" stroke-width="1.4"/><path d="M489.065,77.605l10.555-6.093,10.553-6.093L499.62,59.325l-10.555-6.093" transform="translate(-489.065 7.699)" fill="none" stroke="#383330" stroke-linecap="round" stroke-linejoin="round" stroke-width="1.4"/><path d="M510.172,78.269l-10.553-6.094-10.554-6.092V90.455l10.554,6.093,10.553,6.093V78.269Z" transform="translate(-489.065 19.222)" fill="none" stroke="#383330" stroke-linecap="round" stroke-linejoin="round" stroke-width="1.4"/><path d="M500.194,52.568l10.554-6.093L521.3,40.382V64.755l-10.554,6.093-10.554,6.093V52.568Z" transform="translate(-479.086 -3.823)" fill="none" stroke="#383330" stroke-linecap="round" stroke-linejoin="round" stroke-width="1.4"/><path d="M543.558,76.278V100.65L533,106.744l-10.554,6.093V39.718L533,33.625l10.554-6.093V76.278Z" transform="translate(-459.128 -15.346)" fill="none" stroke="#383330" stroke-linecap="round" stroke-linejoin="round" stroke-width="1.4"/><path d="M489.065,64.755V40.382l10.554,6.093,10.553,6.093V76.941l-10.553-6.093Z" transform="translate(-489.065 -3.823)" fill="none" stroke="#383330" stroke-linecap="round" stroke-linejoin="round" stroke-width="1.4"/><path d="M521.3,46.143,510.748,40.05l-10.554-6.093V58.33l10.554-6.093Z" transform="translate(-479.086 -9.585)" fill="none" stroke="#383330" stroke-linecap="round" stroke-linejoin="round" stroke-width="1.4"/><path d="M532.429,39.719l-10.553-6.093-10.554-6.094V51.905l10.554-6.093Z" transform="translate(-469.107 -15.346)" fill="none" stroke="#383330" stroke-linecap="round" stroke-linejoin="round" stroke-width="1.4"/><path d="M543.558,33.293,533,27.2,522.45,21.107V45.48L533,39.387Z" transform="translate(-459.128 -21.107)" fill="none" stroke="#383330" stroke-linecap="round" stroke-linejoin="round" stroke-width="1.4"/><path d="M510.173,58.33V33.957L499.618,40.05l-10.553,6.094,10.554,6.093Z" transform="translate(-489.065 -9.585)" fill="none" stroke="#383330" stroke-linecap="round" stroke-linejoin="round" stroke-width="1.4"/><path d="M521.3,51.9V27.532l-10.554,6.093-10.554,6.093,10.554,6.093Z" transform="translate(-479.086 -15.346)" fill="none" stroke="#383330" stroke-linecap="round" stroke-linejoin="round" stroke-width="1.4"/><path d="M532.429,45.48V21.107L521.876,27.2l-10.554,6.093,10.554,6.093Z" transform="translate(-469.107 -21.107)" fill="none" stroke="#383330" stroke-linecap="round" stroke-linejoin="round" stroke-width="1.4"/></g></svg>