<svg xmlns="http://www.w3.org/2000/svg" viewBox="0 0 250 67"><defs><style>.a{fill:#b3b3b3;}</style></defs><title>logo</title><rect x="8.5" y="33.58" width="18.69" height="18.69"/><rect class="a" x="27.07" y="14.41" width="18.69" height="18.69"/><path d="M57.49,26.46c.57-9.41,9-12.24,17.19-12.24,7.29,0,16.06,1.63,16.06,10.4v19c0,3.33.35,6.65,1.27,8.14H81.83a14.73,14.73,0,0,1-.71-3.54c-3.18,3.32-7.85,4.53-12.31,4.53-6.93,0-12.45-3.47-12.45-11,0-8.28,6.22-10.25,12.45-11.11S80.69,30,80.69,25.89c0-4.31-3-4.95-6.5-4.95-3.82,0-6.3,1.56-6.65,5.52Zm23.2,7.43C79,35.37,75.46,35.44,72.35,36s-5.94,1.7-5.94,5.38,2.9,4.66,6.15,4.66c7.85,0,8.13-6.22,8.13-8.41Z"/><path d="M132.85,51.79H123.3v-5.1h-.21a13.06,13.06,0,0,1-11.18,6.09c-10.68,0-13.37-6-13.37-15.07V15.21h10V35.87c0,6,1.77,9,6.43,9,5.45,0,7.79-3,7.79-10.47V15.21h10Z"/><path d="M140.52,15.21h9.55V22h.14a12.92,12.92,0,0,1,11.67-7.79,7.18,7.18,0,0,1,2.19.36v9.33a18.46,18.46,0,0,0-3.6-.35c-7.36,0-9.91,5.31-9.91,11.74V51.79h-10Z"/><path d="M175.05,35.94c.28,6.36,3.4,9.27,9,9.27,4,0,7.28-2.48,7.92-4.74h8.84C198,49.1,192,52.78,183.68,52.78c-11.53,0-18.67-7.93-18.67-19.25,0-11,7.56-19.31,18.67-19.31,12.45,0,18.47,10.47,17.76,21.72Zm16.34-6.37c-.92-5.09-3.11-7.78-8-7.78a7.91,7.91,0,0,0-8.35,7.78Z"/><path d="M207,26.46c.56-9.41,9-12.24,17.19-12.24,7.29,0,16.06,1.63,16.06,10.4v19c0,3.33.35,6.65,1.27,8.14H231.32a14.73,14.73,0,0,1-.71-3.54c-3.18,3.32-7.86,4.53-12.31,4.53-6.93,0-12.45-3.47-12.45-11,0-8.28,6.22-10.25,12.45-11.11s11.88-.71,11.88-4.81c0-4.31-3-4.95-6.5-4.95-3.83,0-6.3,1.56-6.65,5.52Zm23.2,7.43c-1.7,1.48-5.23,1.55-8.35,2.12s-5.94,1.7-5.94,5.38,2.9,4.66,6.16,4.66c7.85,0,8.13-6.22,8.13-8.41Z"/></svg>