<svg width="132" height="22" viewBox="0 0 132 22" fill="none" xmlns="http://www.w3.org/2000/svg">
<path d="M23.0882 -1.43051e-06L13.9982 21H9.1982L0.138203 -1.43051e-06H5.3882L11.7782 15L18.2582 -1.43051e-06H23.0882ZM42.111 21.36C39.111 21.36 36.771 20.53 35.091 18.87C33.431 17.21 32.601 14.84 32.601 11.76V-1.43051e-06H37.461V11.58C37.461 15.34 39.021 17.22 42.141 17.22C43.661 17.22 44.821 16.77 45.621 15.87C46.421 14.95 46.821 13.52 46.821 11.58V-1.43051e-06H51.621V11.76C51.621 14.84 50.781 17.21 49.101 18.87C47.441 20.53 45.111 21.36 42.111 21.36ZM77.3141 16.5H67.5641L65.7041 21H60.7241L70.0841 -1.43051e-06H74.8841L84.2741 21H79.1741L77.3141 16.5ZM75.7841 12.81L72.4541 4.77L69.1241 12.81H75.7841ZM93.9529 -1.43051e-06H103.493C105.773 -1.43051e-06 107.783 0.439999 109.523 1.32C111.283 2.18 112.643 3.4 113.603 4.98C114.583 6.56 115.073 8.4 115.073 10.5C115.073 12.6 114.583 14.44 113.603 16.02C112.643 17.6 111.283 18.83 109.523 19.71C107.783 20.57 105.773 21 103.493 21H93.9529V-1.43051e-06ZM103.253 17.01C105.353 17.01 107.023 16.43 108.263 15.27C109.523 14.09 110.153 12.5 110.153 10.5C110.153 8.5 109.523 6.92 108.263 5.76C107.023 4.58 105.353 3.99 103.253 3.99H98.8129V17.01H103.253ZM126.238 -1.43051e-06H131.098V21H126.238V-1.43051e-06Z" fill="black"/>
</svg>
