<svg xmlns="http://www.w3.org/2000/svg" width="81.899" height="110.951" viewBox="0 0 81.899 110.951"><g transform="translate(0.956 0.956)"><path d="M525.159,543.728l-13.33-7.7-13.33-7.7v63.116l13.33,7.7,13.33,7.7V543.728Z" transform="translate(-498.498 -497.549)" fill="none" stroke="#383330" stroke-linecap="round" stroke-linejoin="round" stroke-width="1.4"/><path d="M547.417,530.878l-13.331-7.7-13.331-7.7" transform="translate(-467.431 -515.485)" fill="none" stroke="#383330" stroke-linecap="round" stroke-linejoin="round" stroke-width="1.4"/><path d="M531.884,521.91v63.113" transform="translate(-451.897 -506.517)" fill="none" stroke="#383330" stroke-linecap="round" stroke-linejoin="round" stroke-width="1.4"/><path d="M539.193,522.777l12.629-7.292V578.6L511.83,601.689l-13.331,7.7V546.272l13.331-7.7,12.712-7.339Z" transform="translate(-498.498 -515.485)" fill="none" stroke="#383330" stroke-linecap="round" stroke-linejoin="round" stroke-width="1.4"/><path d="M547.417,557.222l-13.331-7.7-13.332-7.7" transform="translate(-467.431 -478.715)" fill="none" stroke="#383330" stroke-linecap="round" stroke-linejoin="round" stroke-width="1.4"/><line x2="26.661" y2="15.392" transform="translate(53.324 31.557)" stroke-width="1.4" stroke="#383330" stroke-linecap="round" stroke-linejoin="round" fill="none"/><path d="M525.16,556.9l-16.142-9.32-10.52-6.074" transform="translate(-498.498 -479.164)" fill="none" stroke="#383330" stroke-linecap="round" stroke-linejoin="round" stroke-width="1.4"/></g></svg>